# xmcd CD database file
#
# Track frame offsets:
#	150
#	40780
#	79841
#	114909
#	156387
#	221652
#	248761
#
# Disc length: 3649 seconds
#
# Revision: 0
# Processed by: cddbd v1.5.2PL0 Copyright (c) Steve Scherf et al.
# Submitted via: CDex 1.70beta2
#
DISCID=550e3f07
DTITLE=Jessica Williams - Unity
DYEAR=2006
DGENRE=Jazz
TTITLE0=Wise One
TTITLE1=The Black and Crazy Blues
TTITLE2=Every Time We Say Goodbye
TTITLE3=Love and Hate
TTITLE4=Green Chimneys
TTITLE5=You Won't Go When I Go
TTITLE6=Just The Way You Look Tonight
EXTD=YEAR: 2006
EXTT0=
EXTT1=
EXTT2=
EXTT3=
EXTT4=
EXTT5=
EXTT6=
PLAYORDER=
